<svg xmlns="http://www.w3.org/2000/svg" viewBox="0 0 132.29 132.29"><g transform="translate(-19.07 -69.6)"><circle cx="85.69" cy="135.74" r="53.88" fill="#fff"/><path fill="#c9be9e" d="m116.34 115.83-29.4 11.4-.39 8.18h12.97v3.18H86.4l-1.6 33.83 28.1-7.9 15.74-.41 16.06 6.27-10.46-51.2z"/><path fill="#e8cb91" d="m135.2 109.47-31 4.03-17.24 13.26-.41 8.65h12.97v3.18H86.4l-1.6 33.83 24.61-14.9 26.5 1.65z"/><path fill="#715c4b" d="m49.32 115.83-14.3 3.1-9.3 50.2 15.15-5.02 19.24.92 24.69 7.39-1.11-33.83h-12.7v-3.18h12.6l-.31-9.29-12.46-7.95z"/><path fill="#9e927a" d="m45.28 110.9-9 48.27 24.38-.48 24.14 13.73-1.11-33.83h-12.7v-3.18h12.6l-.32-9.68-15.75-12.47z"/></g></svg>